<?xml version="1.0" encoding="utf-8"?>
<!-- Generator: Adobe Illustrator 23.0.0, SVG Export Plug-In . SVG Version: 6.00 Build 0)  -->
<svg version="1.1" id="Capa_1" xmlns="http://www.w3.org/2000/svg" xmlns:xlink="http://www.w3.org/1999/xlink" x="0px" y="0px"
	 viewBox="0 0 103.07 168.43" style="enable-background:new 0 0 103.07 168.43;" xml:space="preserve">
<style type="text/css">
	.st0{fill:none;stroke:#1D1D1B;stroke-miterlimit:10;}
	.st1{fill:#FFFFFF;stroke:#1D1D1B;stroke-miterlimit:10;}
	.st2{fill:#FFFFFF;}
	.st3{fill:none;stroke:#000000;stroke-miterlimit:10;}
	.st4{fill:none;stroke:#000000;stroke-linecap:round;stroke-miterlimit:10;}
	.st5{fill:none;stroke:#00001B;stroke-miterlimit:10;}
	.st6{fill:none;stroke:#00001B;stroke-linecap:round;stroke-miterlimit:10;}
	.st7{fill:none;stroke:#00001B;stroke-linejoin:bevel;stroke-miterlimit:10;}
	.st8{fill:none;stroke:#000000;stroke-linejoin:bevel;stroke-miterlimit:10;}
	.st9{fill:none;stroke:#D97855;stroke-miterlimit:10;}
	.st10{fill:none;stroke:#D97855;stroke-linecap:round;stroke-miterlimit:10;}
	.st11{fill:none;stroke:#D97855;stroke-linejoin:bevel;stroke-miterlimit:10;}
</style>
<g>
	<path class="st9" d="M100.63,164.85H2.44V50.82c0-26.08,21.15-47.23,47.23-47.23h3.73c26.08,0,47.23,21.15,47.23,47.23V164.85z"/>
	<g>
		<path class="st10" d="M60.51,46.32c-15.68-7.04-19.87,8.29-12.02,12.26c0.11,0.06,0.23,0.12,0.35,0.17
			c5.08,2.49,10.14,5.22,14.43,8.96c4.63,4.04,7.63,9.27,10.3,14.74c4.23,8.69,6.68,18.08,8.98,27.42
			c2.06,8.38,4.35,16.69,6.7,24.99c2.79,9.86,5.69,19.95,8.48,29.81"/>
		<path class="st10" d="M44.99,49.54c-11.92-9.15-2.98-16.35-2.98-16.35s8.77-6.96,19.23,0.72"/>
		<g>
			<path class="st10" d="M39.69,35.84c-4.03-5.29-5.34-12.25,2.42-16.16c5.29-2.67,13.6-3.01,18.17,1.06"/>
		</g>
		<path class="st9" d="M49.42,17.73c11.81-14.88,29.55,7.49,29.55,7.49s15.55,16.56,21.65,33.75"/>
	</g>
	<path class="st9" d="M53.43,128.35c-0.56,2.15-1.48,3.99-2.82,5.29c-0.88,0.86-2.89,0.72-5.05-1.94"/>
	<path class="st9" d="M52.86,112.79c0.31,1.14,0.57,2.33,0.77,3.54"/>
	<path class="st9" d="M21.06,13.1l11.32,35.1c0.13,0.4,0.34,0.76,0.63,1.07c2.57,2.74,15.82,17.61,15.84,32.64
		c0,0-0.43,16.01,1.06,22.81"/>
	<path class="st10" d="M52.89,112.84c-1.47,1.23-3.15,2.41-5.03,3.42c-3.54,1.91-7.79,3.2-12.71,3.03l-15.41-7.91"/>
	<path class="st10" d="M33.05,72.23c0,0-12.91,21.03-10.19,25.5s18.36,12.82,18.36,12.82s11.54-9.55,18.78-6.88
		c0.32,0.12,0.43,0.5,0.25,0.79c-0.85,1.36-3.34,5.04-7.37,8.39"/>
	<path class="st9" d="M3.11,42.69l5.06,14.1c0.11,0.3,0.17,0.62,0.17,0.94c0.01,2.78,0.03,17.11-0.63,29.32
		c-0.66,12.08,2.78,24.02,9.84,33.85l3.26,4.53c0,0,6.98,7.64,11.96,8.97c0.07,0.02,0.14,0.02,0.21,0.01
		c1.83-0.26,27.33-4.16,36.25-19.57c0,0-1.11-6.98-17.19,2.62c0,0-13.03,3.8-17.14,1.73"/>
	<path class="st9" d="M21.54,126.2c0,0,5.05,12.75,8.89,13.74c3.81,0.98,21.05,10.02,39.94-1.97c0.29-0.18,0.38-0.59,0.17-0.86
		c-1.06-1.34-5.16-4.46-19.25-0.77c0,0-3.71-3.64-8.43-4.2"/>
	<path class="st11" d="M29.21,139.33l22.61,19.68c0.3,0.27,0.83,0.14,0.97-0.25c0.82-2.37,4.11-7.68-8.23-14.96"/>
	<path class="st10" d="M38.14,108.54l-2.18-9.5c-0.06-0.24-0.36-0.31-0.51-0.12l-2.59,6.65"/>
</g>
</svg>
