<?xml version="1.0" encoding="utf-8"?>
<!-- Generator: Adobe Illustrator 23.0.0, SVG Export Plug-In . SVG Version: 6.00 Build 0)  -->
<svg version="1.1" id="Capa_1" xmlns="http://www.w3.org/2000/svg" xmlns:xlink="http://www.w3.org/1999/xlink" x="0px" y="0px"
	 viewBox="0 0 109.53 38.3" style="enable-background:new 0 0 109.53 38.3;" xml:space="preserve">
<style type="text/css">
	.st0{fill:none;stroke:#1D1D1B;stroke-miterlimit:10;}
	.st1{fill:#FFFFFF;stroke:#1D1D1B;stroke-miterlimit:10;}
	.st2{fill:#FFFFFF;}
	.st3{fill:none;stroke:#000000;stroke-miterlimit:10;}
	.st4{fill:none;stroke:#000000;stroke-linecap:round;stroke-miterlimit:10;}
	.st5{fill:none;stroke:#00001B;stroke-miterlimit:10;}
	.st6{fill:none;stroke:#00001B;stroke-linecap:round;stroke-miterlimit:10;}
	.st7{fill:none;stroke:#00001B;stroke-linejoin:bevel;stroke-miterlimit:10;}
	.st8{fill:none;stroke:#000000;stroke-linejoin:bevel;stroke-miterlimit:10;}
	.st9{fill:none;stroke:#D97855;stroke-miterlimit:10;}
	.st10{fill:none;stroke:#D97855;stroke-linecap:round;stroke-miterlimit:10;}
	.st11{fill:none;stroke:#D97855;stroke-linejoin:bevel;stroke-miterlimit:10;}
</style>
<g>
	<path d="M10.43,30.08c-1.69-1.08-2.98-2.54-3.89-4.39s-1.36-3.91-1.36-6.18c0-2.34,0.5-4.51,1.49-6.49
		c0.99-1.98,2.34-3.55,4.05-4.7c1.71-1.15,3.57-1.72,5.58-1.72c1.91,0,3.59,0.27,5.04,0.81c1.45,0.54,2.51,1.23,3.21,2.06
		c0.41,0.5,0.66,1.17,0.75,1.99c0.09,0.82,0.14,1.95,0.14,3.39h-0.72c-0.45-2.32-1.29-4.03-2.51-5.14
		c-1.22-1.11-2.83-1.67-4.84-1.67c-2.58,0-4.66,0.91-6.24,2.72s-2.37,4.73-2.37,8.75c0,1.89,0.3,3.65,0.91,5.27
		c0.61,1.63,1.56,2.95,2.85,3.96c1.29,1.02,2.91,1.52,4.84,1.52c1.74,0,3.27-0.42,4.57-1.26c1.3-0.84,2.47-2.09,3.5-3.76l0.72,0.54
		c-1.1,2.15-2.46,3.67-4.07,4.57c-1.61,0.9-3.54,1.34-5.79,1.34C14.07,31.7,12.12,31.16,10.43,30.08z"/>
	<path d="M31.77,30.26c-1.14-0.96-1.7-2.63-1.7-5.02v-6.45c0-1.22-0.17-2.12-0.5-2.71c-0.33-0.59-1-0.88-2.01-0.88h-0.36v-0.72h2.87
		c0.88,0,1.55,0.11,1.99,0.34c0.44,0.23,0.76,0.64,0.95,1.24c0.19,0.6,0.29,1.51,0.29,2.72v6.45c0,1.67,0.38,2.9,1.13,3.68
		c0.75,0.78,1.69,1.16,2.82,1.16c1.27,0,2.46-0.63,3.58-1.9v-13.7h3.23v16.85h-1.79L41,29.9h-0.18c-0.5,0.5-1.15,0.93-1.95,1.27
		c-0.8,0.35-1.7,0.52-2.71,0.52C34.37,31.7,32.9,31.22,31.77,30.26z"/>
	<path d="M49.96,12.34c0-1.22-0.17-2.12-0.5-2.71c-0.33-0.59-1-0.88-2.01-0.88h-0.72V8.03h9.39c4.64,0,8.14,1.03,10.52,3.08
		c2.38,2.06,3.57,4.92,3.57,8.6c0,2.37-0.5,4.45-1.51,6.26c-1,1.81-2.49,3.21-4.46,4.21c-1.97,1-4.37,1.51-7.19,1.51h-7.1V12.34z
		 M61.74,29.13c1.42-0.87,2.54-2.1,3.35-3.69c0.81-1.59,1.22-3.45,1.22-5.58c0-2.08-0.4-3.92-1.2-5.52c-0.8-1.6-1.92-2.84-3.35-3.73
		c-1.43-0.88-3.06-1.33-4.88-1.33c-1.15,0-2.34,0.19-3.59,0.57v20.11c1.34,0.31,2.56,0.47,3.66,0.47
		C58.72,30.44,60.32,30.01,61.74,29.13z"/>
	<path d="M74.92,19.15c0-1.22-0.17-2.12-0.5-2.71c-0.33-0.59-1-0.88-2.01-0.88h-0.72v-0.72h3.23c0.88,0,1.55,0.11,1.99,0.34
		c0.44,0.23,0.76,0.64,0.95,1.24c0.19,0.6,0.29,1.51,0.29,2.72V31.7h-3.23V19.15z M74.86,12.01c-0.39-0.45-0.59-0.99-0.59-1.61
		c0-0.5,0.15-0.9,0.45-1.18c0.3-0.29,0.7-0.43,1.2-0.43c0.55,0,1.02,0.23,1.42,0.68s0.59,0.99,0.59,1.61c0,0.5-0.15,0.9-0.45,1.18
		c-0.3,0.29-0.7,0.43-1.2,0.43C75.73,12.7,75.26,12.47,74.86,12.01z"/>
	<path d="M99.51,30.75c-1.12-0.63-2.02-1.87-2.69-3.71l-0.9-2.33H85.89l-2.87,6.81h-1.61L91.44,7.85h1.08l7.89,19.18
		c0.6,1.39,1.16,2.34,1.69,2.85c0.53,0.51,1.28,0.82,2.26,0.91v0.72c-0.43,0.12-0.91,0.18-1.43,0.18
		C101.77,31.7,100.63,31.38,99.51,30.75z M86.42,23.27h8.78l-4.3-10.4L86.42,23.27z"/>
</g>
</svg>
