<?xml version="1.0" encoding="utf-8"?>
<!-- Generator: Adobe Illustrator 23.0.0, SVG Export Plug-In . SVG Version: 6.00 Build 0)  -->
<svg version="1.1" id="Capa_1" xmlns="http://www.w3.org/2000/svg" xmlns:xlink="http://www.w3.org/1999/xlink" x="0px" y="0px"
	 viewBox="0 0 103.07 217.2" style="enable-background:new 0 0 103.07 217.2;" xml:space="preserve">
<style type="text/css">
	.st0{fill:none;stroke:#1D1D1B;stroke-miterlimit:10;}
	.st1{fill:#FFFFFF;stroke:#1D1D1B;stroke-miterlimit:10;}
	.st2{fill:#FFFFFF;}
	.st3{fill:none;stroke:#000000;stroke-miterlimit:10;}
	.st4{fill:none;stroke:#000000;stroke-linecap:round;stroke-miterlimit:10;}
	.st5{fill:none;stroke:#00001B;stroke-miterlimit:10;}
	.st6{fill:none;stroke:#00001B;stroke-linecap:round;stroke-miterlimit:10;}
	.st7{fill:none;stroke:#00001B;stroke-linejoin:bevel;stroke-miterlimit:10;}
	.st8{fill:none;stroke:#000000;stroke-linejoin:bevel;stroke-miterlimit:10;}
	.st9{fill:none;stroke:#D97855;stroke-miterlimit:10;}
	.st10{fill:none;stroke:#D97855;stroke-linecap:round;stroke-miterlimit:10;}
	.st11{fill:none;stroke:#D97855;stroke-linejoin:bevel;stroke-miterlimit:10;}
</style>
<g>
	<path class="st3" d="M100.99,167.14H2.8V53.11c0-26.08,21.15-47.23,47.23-47.23h3.73c26.08,0,47.23,21.15,47.23,47.23V167.14z"/>
	<g>
		<path class="st4" d="M60.87,48.62C45.19,41.58,41,56.91,48.85,60.88c0.11,0.06,0.23,0.12,0.35,0.17
			c5.08,2.49,10.14,5.22,14.43,8.96c4.63,4.04,7.63,9.27,10.3,14.74c4.23,8.69,6.68,18.08,8.98,27.42
			c2.06,8.38,4.35,16.69,6.7,24.99c2.79,9.86,5.69,19.95,8.48,29.81"/>
		<path class="st4" d="M45.35,51.84c-11.92-9.15-2.98-16.35-2.98-16.35s8.77-6.96,19.23,0.72"/>
		<g>
			<path class="st4" d="M40.05,38.14c-4.03-5.29-5.34-12.25,2.42-16.16c5.29-2.67,13.6-3.01,18.17,1.06"/>
		</g>
		<path class="st3" d="M49.78,20.03c11.81-14.88,29.55,7.49,29.55,7.49s15.55,16.56,21.65,33.75"/>
	</g>
	<path class="st3" d="M53.79,130.65c-0.56,2.15-1.48,3.99-2.82,5.29c-0.88,0.86-2.89,0.72-5.05-1.94"/>
	<path class="st3" d="M53.22,115.09c0.31,1.14,0.57,2.33,0.77,3.54"/>
	<path class="st3" d="M21.42,15.4l11.32,35.1c0.13,0.4,0.34,0.76,0.63,1.07c2.57,2.74,15.82,17.61,15.84,32.64
		c0,0-0.43,16.01,1.06,22.81"/>
	<path class="st4" d="M53.25,115.14c-1.47,1.23-3.15,2.41-5.03,3.42c-3.54,1.91-7.79,3.2-12.71,3.03l-15.41-7.91"/>
	<path class="st4" d="M33.42,74.53c0,0-12.91,21.03-10.19,25.5s18.36,12.82,18.36,12.82s11.54-9.55,18.78-6.88
		c0.32,0.12,0.43,0.5,0.25,0.79c-0.85,1.36-3.34,5.04-7.37,8.39"/>
	<path class="st3" d="M3.47,44.99l5.06,14.1c0.11,0.3,0.17,0.62,0.17,0.94C8.7,62.8,8.73,77.13,8.06,89.35
		c-0.66,12.08,2.78,24.02,9.84,33.85l3.26,4.53c0,0,6.98,7.64,11.96,8.97c0.07,0.02,0.14,0.02,0.21,0.01
		c1.83-0.26,27.33-4.16,36.25-19.57c0,0-1.11-6.98-17.19,2.62c0,0-13.03,3.8-17.14,1.73"/>
	<path class="st3" d="M21.9,128.5c0,0,5.05,12.75,8.89,13.74c3.81,0.98,21.05,10.02,39.94-1.97c0.29-0.18,0.38-0.59,0.17-0.86
		c-1.06-1.34-5.16-4.46-19.25-0.77c0,0-3.71-3.64-8.43-4.2"/>
	<path class="st8" d="M29.57,141.63l22.61,19.68c0.3,0.27,0.83,0.14,0.97-0.25c0.82-2.37,4.11-7.68-8.23-14.96"/>
	<path class="st4" d="M38.5,110.83l-2.18-9.5c-0.06-0.24-0.36-0.31-0.51-0.12l-2.59,6.65"/>
</g>
<g>
	<path d="M7.55,199.07c-1.69-1.08-2.98-2.54-3.89-4.39s-1.36-3.91-1.36-6.18c0-2.34,0.5-4.51,1.49-6.49
		c0.99-1.98,2.34-3.55,4.05-4.7c1.71-1.15,3.57-1.72,5.58-1.72c1.91,0,3.59,0.27,5.04,0.81c1.45,0.54,2.51,1.23,3.21,2.06
		c0.41,0.5,0.66,1.17,0.75,1.99c0.09,0.82,0.14,1.95,0.14,3.39h-0.72c-0.45-2.32-1.29-4.03-2.51-5.14
		c-1.22-1.11-2.83-1.67-4.84-1.67c-2.58,0-4.66,0.91-6.24,2.72c-1.58,1.82-2.37,4.73-2.37,8.75c0,1.89,0.3,3.65,0.91,5.27
		c0.61,1.63,1.56,2.95,2.85,3.96c1.29,1.02,2.91,1.52,4.84,1.52c1.74,0,3.27-0.42,4.57-1.26c1.3-0.84,2.47-2.09,3.5-3.76l0.72,0.54
		c-1.1,2.15-2.46,3.67-4.07,4.57c-1.61,0.9-3.54,1.34-5.79,1.34C11.19,200.69,9.24,200.15,7.55,199.07z"/>
	<path d="M28.89,199.25c-1.14-0.96-1.7-2.63-1.7-5.02v-6.45c0-1.22-0.17-2.12-0.5-2.71s-1-0.88-2.01-0.88h-0.36v-0.72h2.87
		c0.88,0,1.55,0.11,1.99,0.34c0.44,0.23,0.76,0.64,0.95,1.24c0.19,0.6,0.29,1.51,0.29,2.72v6.45c0,1.67,0.38,2.9,1.13,3.68
		c0.75,0.78,1.69,1.16,2.82,1.16c1.27,0,2.46-0.63,3.58-1.9v-13.7h3.23v16.85h-1.79l-1.26-1.43h-0.18c-0.5,0.5-1.15,0.93-1.95,1.27
		c-0.8,0.35-1.7,0.52-2.71,0.52C31.49,200.69,30.02,200.21,28.89,199.25z"/>
	<path d="M47.08,181.32c0-1.22-0.17-2.12-0.5-2.71s-1-0.88-2.01-0.88h-0.72v-0.72h9.39c4.64,0,8.14,1.03,10.52,3.08
		c2.38,2.06,3.57,4.92,3.57,8.6c0,2.37-0.5,4.45-1.51,6.26c-1,1.81-2.49,3.21-4.46,4.21c-1.97,1-4.37,1.51-7.19,1.51h-7.1V181.32z
		 M58.86,198.12c1.42-0.87,2.54-2.1,3.35-3.69c0.81-1.59,1.22-3.45,1.22-5.58c0-2.08-0.4-3.92-1.2-5.52
		c-0.8-1.6-1.92-2.84-3.35-3.73c-1.43-0.88-3.06-1.33-4.88-1.33c-1.15,0-2.34,0.19-3.59,0.57v20.11c1.34,0.31,2.56,0.47,3.66,0.47
		C55.84,199.43,57.44,198.99,58.86,198.12z"/>
	<path d="M72.04,188.14c0-1.22-0.17-2.12-0.5-2.71c-0.33-0.59-1-0.88-2.01-0.88h-0.72v-0.72h3.23c0.88,0,1.55,0.11,1.99,0.34
		c0.44,0.23,0.76,0.64,0.95,1.24c0.19,0.6,0.29,1.51,0.29,2.72v12.55h-3.23V188.14z M71.98,181c-0.39-0.45-0.59-0.99-0.59-1.61
		c0-0.5,0.15-0.9,0.45-1.18c0.3-0.29,0.7-0.43,1.2-0.43c0.55,0,1.02,0.23,1.42,0.68c0.39,0.45,0.59,0.99,0.59,1.61
		c0,0.5-0.15,0.9-0.45,1.18c-0.3,0.29-0.7,0.43-1.2,0.43C72.85,181.68,72.38,181.46,71.98,181z"/>
	<path d="M96.63,199.73c-1.12-0.63-2.02-1.87-2.69-3.71l-0.9-2.33H83.01l-2.87,6.81h-1.61l10.04-23.66h1.08l7.89,19.18
		c0.6,1.39,1.16,2.34,1.69,2.85c0.53,0.51,1.28,0.82,2.26,0.91v0.72c-0.43,0.12-0.91,0.18-1.43,0.18
		C98.89,200.69,97.76,200.37,96.63,199.73z M83.55,192.26h8.78l-4.3-10.4L83.55,192.26z"/>
</g>
</svg>
